<?xml version="1.0" standalone="no"?>
<!DOCTYPE svg PUBLIC "-//W3C//DTD SVG 20010904//EN"
 "http://www.w3.org/TR/2001/REC-SVG-20010904/DTD/svg10.dtd">
<svg version="1.0" xmlns="http://www.w3.org/2000/svg"
 width="500.000000pt" height="500.000000pt" viewBox="0 0 500.000000 500.000000"
 preserveAspectRatio="xMidYMid meet">

<g transform="translate(0.000000,500.000000) scale(0.100000,-0.100000)"
fill="#000000" stroke="none">
<path d="M3585 4134 c-110 -19 -204 -36 -210 -38 -5 -2 61 -73 148 -160 121
-118 165 -156 184 -156 14 0 81 14 149 32 102 26 124 35 119 47 -4 9 -20 70
-37 136 -24 98 -35 125 -59 148 -37 34 -45 34 -294 -9z"/>
<path d="M2731 3939 c-107 -27 -196 -50 -197 -52 -7 -7 267 -278 291 -287 14
-5 41 -10 58 -10 46 0 378 84 376 96 -1 5 -65 75 -144 157 -109 112 -148 147
-166 146 -13 -1 -111 -23 -218 -50z"/>
<path d="M1852 3735 c-95 -23 -175 -45 -178 -47 -4 -5 295 -285 320 -300 10
-6 402 78 415 88 7 6 -71 96 -175 201 l-100 103 -55 -1 c-29 -1 -132 -20 -227
-44z"/>
<path d="M1075 3555 c-128 -45 -139 -57 -132 -150 8 -108 39 -255 53 -255 7 0
130 27 273 60 143 33 268 60 276 60 30 0 13 28 -91 143 -167 186 -207 201
-379 142z"/>
<path d="M1000 2936 c0 -80 4 -156 10 -170 15 -42 43 -49 195 -50 115 -1 145
2 166 15 19 13 186 287 207 341 2 4 -127 8 -287 8 l-291 0 0 -144z"/>
<path d="M2009 3065 c-14 -7 -38 -38 -54 -67 -16 -29 -59 -104 -97 -165 l-67
-113 142 -2 c247 -5 252 -4 304 28 41 25 55 44 103 134 30 58 70 126 88 153
l33 47 -213 0 c-162 -1 -219 -4 -239 -15z"/>
<path d="M2874 3072 c-10 -7 -204 -336 -204 -347 0 -8 434 -6 446 3 6 4 50 75
99 157 48 83 94 160 101 173 l14 22 -222 0 c-123 0 -228 -4 -234 -8z"/>
<path d="M3782 3072 c-49 -15 -94 -64 -131 -146 -21 -44 -54 -107 -74 -138
-21 -31 -37 -60 -37 -63 0 -3 93 -5 206 -5 300 0 304 3 304 225 l0 135 -122
-1 c-68 -1 -133 -4 -146 -7z"/>
<path d="M1000 1918 c0 -441 4 -740 10 -766 37 -157 160 -265 350 -306 67 -15
189 -16 1195 -14 1059 3 1123 4 1175 22 180 60 279 166 309 330 7 40 11 296
11 758 l0 698 -1525 0 -1525 0 0 -722z m1538 105 c186 -123 354 -242 376 -264
33 -35 37 -45 32 -72 -4 -18 -19 -44 -34 -58 -15 -15 -180 -127 -367 -249
-187 -123 -350 -229 -362 -238 l-23 -14 0 571 0 572 21 -12 c11 -6 172 -112
357 -236z"/>
</g>
</svg>
